<?xml version="1.0" standalone="no"?>
<!DOCTYPE svg PUBLIC "-//W3C//DTD SVG 20010904//EN"
 "http://www.w3.org/TR/2001/REC-SVG-20010904/DTD/svg10.dtd">
<svg version="1.0" xmlns="http://www.w3.org/2000/svg"
 width="600.000000pt" height="600.000000pt" viewBox="0 0 600.000000 600.000000"
 preserveAspectRatio="xMidYMid meet">
<metadata>
Created by potrace 1.14, written by Peter Selinger 2001-2017
</metadata>
<g transform="translate(0.000000,600.000000) scale(0.100000,-0.100000)"
fill="#000000" stroke="none">
<path d="M2906 4100 c-132 -21 -356 -99 -356 -123 1 -28 86 -172 100 -170 8 1
44 14 80 28 258 108 593 73 827 -86 80 -54 167 -135 209 -193 l39 -55 123 -1
124 0 -28 48 c-102 176 -259 329 -435 426 -82 45 -209 92 -303 112 -86 19
-299 26 -380 14z"/>
<path d="M2248 3988 c22 -40 169 -316 327 -613 158 -297 304 -572 326 -612
l39 -72 0 -395 0 -396 23 -5 c12 -3 60 -5 107 -3 l85 3 5 400 5 400 243 455
244 455 -48 43 c-26 24 -61 50 -77 59 -27 14 -32 14 -41 0 -6 -8 -105 -192
-221 -410 -115 -218 -213 -393 -217 -389 -7 8 -548 1021 -586 1100 l-26 52
-114 0 -114 0 40 -72z"/>
<path d="M3656 4031 l-15 -29 57 -37 c31 -21 67 -47 79 -58 13 -11 25 -19 27
-16 3 3 74 140 84 162 2 4 -46 7 -107 7 l-110 0 -15 -29z"/>
<path d="M2224 3726 c-184 -204 -287 -503 -271 -781 17 -290 130 -539 335
-737 102 -99 184 -156 296 -209 75 -35 240 -89 272 -89 11 0 14 22 14 104 l0
104 -72 22 c-288 87 -513 317 -604 616 -24 80 -27 105 -28 239 0 123 4 164 22
230 27 98 98 246 152 314 22 28 40 57 40 64 0 11 -82 172 -94 184 -2 2 -30
-25 -62 -61z"/>
<path d="M3755 2430 c-110 -137 -272 -243 -447 -294 l-83 -24 0 -103 0 -104
30 4 c63 7 203 54 291 96 171 83 344 235 445 394 27 42 49 79 49 84 0 4 -53 7
-118 7 l-119 0 -48 -60z"/>
</g>
</svg>
